{"title":"The Inner Room 2011 DVDRip XviD - SPRiNTER","uid":6876501,"size":734756574,"categoryP":"video","categoryS":"movies","magnet":"?xt=urn:btih:a01be626084981bdb9ea57af8eb65935693631da&amp;dn=The+Inner+Room+2011+DVDRip+XviD+-+SPRiNTER&amp;tr=udp%3A%2F%2Ftracker.openbittorrent.com%3A80&amp;tr=udp%3A%2F%2Fopen.demonii.com%3A1337&amp;tr=udp%3A%2F%2Ftracker.coppersurfer.tk%3A6969&amp;tr=udp%3A%2F%2Fexodus.desync.com%3A6969","seeders":3,"leechers":0,"uploader":"boobsman","files":11,"time":1323440277,"description":"[img]http://www.freeimage.us/image-572D_4EE1F66D.jpg[/img]\n\nSPRiNTER proudly presents... \n\nThe Inner Room 2011 DVDRip XviD - SPRiNTER\n\nWhile visiting a cabin with her husband, Julianne becomes disturbed with horrific visions which question her sanity.\n\nDate: 2011.12\n &lt;a href=&quot;\nhttp://www.imdb.com/title/tt1715352/&quot; rel=&quot;nofollow&quot; target=&quot;_NEW&quot;&gt;\nhttp://www.imdb.com/title/tt1715352/&lt;/a&gt;\n\nGenre: Horror, Mystery, Thriller\nLanguage: English\nSubtitles: None\n\n\nDetails:\n\nFormat: AVI\nFormat/Info: Audio Video Interleave\nFile size: 701 MiB\nDuration: 1h 22mn\nOverall bit rate mode: Variable\nOverall bit rate: 1 193 Kbps\nWriting application: VirtualDubMod 1.5.10.2 (build 2540/release)\nWriting library: VirtualDubMod build 2540/release\n\nVideo\nID: 0\nFormat: MPEG-4 Visual\nFormat profile: Advanced Simple@L5\nFormat settings, BVOP: 2\nFormat settings, QPel: No\nFormat settings, GMC: No warppoints\nFormat settings, Matrix: Default (H.263)\nCodec ID: XVID\nCodec ID/Hint: XviD\nDuration: 1h 22mn\nBit rate: 1 045 Kbps\nWidth: 608 pixels\nHeight: 352 pixels\nDisplay aspect ratio: 16:9\nFrame rate: 23.976 fps\nColor space: YUV\nChroma subsampling: 4:2:0\nBit depth: 8 bits\nScan type: Progressive\nCompression mode: Lossy\nBits/(Pixel*Frame): 0.204\nStream size: 614 MiB (88%)\nWriting library: XviD 61\n\nAudio\nID: 1\nFormat: MPEG Audio\nFormat version: Version 1\nFormat profile: Layer 3\nMode: Joint stereo\nMode extension: MS Stereo\nCodec ID: 55\nCodec ID/Hint: MP3\nDuration: 1h 22mn\nBit rate mode: Variable\nBit rate: 135 Kbps\nMinimum bit rate: 128 Kbps\nChannel(s): 2 channels\nSampling rate: 48.0 KHz\nCompression mode: Lossy\nStream size: 79.3 MiB (11%)\nAlignment: Aligned on interleaves\nInterleave, duration: 24 ms (0.58 video frame)\nInterleave, preload duration: 136 ms\nWriting library: LAME3.95 \nEncoding settings: -m j -V 4 -q 3 -lowpass 18 --vbr-old -b 128\n\n[img]http://www.freeimage.us/image-4F99_4EE208D7.jpg[/img]\n\n[img]http://www.freeimage.us/image-5ECA_4D9E15E0.gif[/img]\n\n[img]http://torrent-stats.info/57af/915437a3.png[/img]","torrent":{"xt":"urn:btih:a01be626084981bdb9ea57af8eb65935693631da","amp;dn":"The+Inner+Room+2011+DVDRip+XviD+-+SPRiNTER","amp;tr":["udp%3A%2F%2Ftracker.openbittorrent.com%3A80","udp%3A%2F%2Fopen.demonii.com%3A1337","udp%3A%2F%2Ftracker.coppersurfer.tk%3A6969","udp%3A%2F%2Fexodus.desync.com%3A6969"],"infoHash":"a01be626084981bdb9ea57af8eb65935693631da","infoHashBuffer":{"type":"Buffer","data":[160,27,230,38,8,73,129,189,185,234,87,175,142,182,89,53,105,54,49,218]},"announce":[],"urlList":[]}}